<svg xmlns="http://www.w3.org/2000/svg" xmlns:xlink="http://www.w3.org/1999/xlink" viewBox="0 0 200 300">
  <g id="Zeichenfläche_1">
    <g id="Ellipse_30" data-name="Ellipse 30" transform="translate(177.366 256.294)" fill="none" stroke="#707070" stroke-width="1">
      <ellipse cx="5.427" cy="5.427" rx="5.427" ry="5.427" stroke="none"/>
      <ellipse cx="5.427" cy="5.427" rx="4.927" ry="4.927" fill="none"/>
    </g>
    <g id="Ellipse_29" data-name="Ellipse 29" transform="translate(184.019 176.064)" fill="none" stroke="#707070" stroke-width="1">
      <ellipse cx="4.984" cy="4.984" rx="4.984" ry="4.984" stroke="none"/>
      <ellipse cx="4.984" cy="4.984" rx="4.484" ry="4.484" fill="none"/>
    </g>
    <g id="Ellipse_28" data-name="Ellipse 28" transform="translate(128.594 181.055)" fill="none" stroke="#707070" stroke-width="1">
      <ellipse cx="5.462" cy="5.462" rx="5.462" ry="5.462" stroke="none"/>
      <ellipse cx="5.462" cy="5.462" rx="4.962" ry="4.962" fill="none"/>
    </g>
    <g id="Ellipse_27" data-name="Ellipse 27" transform="translate(161.185 115.343)" fill="none" stroke="#707070" stroke-width="1">
      <ellipse cx="4.977" cy="4.977" rx="4.977" ry="4.977" stroke="none"/>
      <ellipse cx="4.977" cy="4.977" rx="4.477" ry="4.477" fill="none"/>
    </g>
    <g id="Ellipse_26" data-name="Ellipse 26" transform="translate(184.934 29.377)" fill="none" stroke="#707070" stroke-width="1">
      <ellipse cx="4.77" cy="4.77" rx="4.77" ry="4.77" stroke="none"/>
      <ellipse cx="4.77" cy="4.77" rx="4.27" ry="4.27" fill="none"/>
    </g>
    <g id="Ellipse_25" data-name="Ellipse 25" transform="translate(147.526 286.874)" fill="none" stroke="#707070" stroke-width="1">
      <ellipse cx="4.544" cy="4.544" rx="4.544" ry="4.544" stroke="none"/>
      <ellipse cx="4.544" cy="4.544" rx="4.044" ry="4.044" fill="none"/>
    </g>
    <g id="Ellipse_24" data-name="Ellipse 24" transform="translate(126.851 226.499)" fill="none" stroke="#707070" stroke-width="1">
      <ellipse cx="4.337" cy="4.337" rx="4.337" ry="4.337" stroke="none"/>
      <ellipse cx="4.337" cy="4.337" rx="3.837" ry="3.837" fill="none"/>
    </g>
    <g id="Ellipse_23" data-name="Ellipse 23" transform="translate(148.108 137.055)" fill="none" stroke="#707070" stroke-width="1">
      <ellipse cx="5.338" cy="5.338" rx="5.338" ry="5.338" stroke="none"/>
      <ellipse cx="5.338" cy="5.338" rx="4.838" ry="4.838" fill="none"/>
    </g>
    <g id="Ellipse_22" data-name="Ellipse 22" transform="translate(152.066 90.012)" fill="none" stroke="#707070" stroke-width="1">
      <ellipse cx="5.488" cy="5.488" rx="5.488" ry="5.488" stroke="none"/>
      <ellipse cx="5.488" cy="5.488" rx="4.988" ry="4.988" fill="none"/>
    </g>
    <g id="Ellipse_21" data-name="Ellipse 21" transform="translate(125.483 36.934)" fill="none" stroke="#707070" stroke-width="1">
      <ellipse cx="4.759" cy="4.759" rx="4.759" ry="4.759" stroke="none"/>
      <ellipse cx="4.759" cy="4.759" rx="4.259" ry="4.259" fill="none"/>
    </g>
    <g id="Ellipse_20" data-name="Ellipse 20" transform="translate(81.945 264.065)" fill="none" stroke="#707070" stroke-width="1">
      <ellipse cx="5.278" cy="5.278" rx="5.278" ry="5.278" stroke="none"/>
      <ellipse cx="5.278" cy="5.278" rx="4.778" ry="4.778" fill="none"/>
    </g>
    <g id="Ellipse_19" data-name="Ellipse 19" transform="translate(76.84 232.271)" fill="none" stroke="#707070" stroke-width="1">
      <ellipse cx="4.056" cy="4.056" rx="4.056" ry="4.056" stroke="none"/>
      <ellipse cx="4.056" cy="4.056" rx="3.556" ry="3.556" fill="none"/>
    </g>
    <g id="Ellipse_18" data-name="Ellipse 18" transform="translate(110.025 129.92)" fill="none" stroke="#707070" stroke-width="1">
      <ellipse cx="5.124" cy="5.124" rx="5.124" ry="5.124" stroke="none"/>
      <ellipse cx="5.124" cy="5.124" rx="4.624" ry="4.624" fill="none"/>
    </g>
    <g id="Ellipse_17" data-name="Ellipse 17" transform="translate(79.684 60.711)" fill="none" stroke="#707070" stroke-width="1">
      <ellipse cx="5.875" cy="5.875" rx="5.875" ry="5.875" stroke="none"/>
      <ellipse cx="5.875" cy="5.875" rx="5.375" ry="5.375" fill="none"/>
    </g>
    <g id="Ellipse_16" data-name="Ellipse 16" transform="translate(114.835 2.759)" fill="none" stroke="#707070" stroke-width="1">
      <ellipse cx="4.679" cy="4.679" rx="4.679" ry="4.679" stroke="none"/>
      <ellipse cx="4.679" cy="4.679" rx="4.179" ry="4.179" fill="none"/>
    </g>
    <g id="Ellipse_15" data-name="Ellipse 15" transform="translate(36.388 288.287)" fill="none" stroke="#707070" stroke-width="1">
      <ellipse cx="4.9" cy="4.9" rx="4.9" ry="4.9" stroke="none"/>
      <ellipse cx="4.9" cy="4.9" rx="4.4" ry="4.4" fill="none"/>
    </g>
    <g id="Ellipse_14" data-name="Ellipse 14" transform="translate(55.716 208.58)" fill="none" stroke="#707070" stroke-width="1">
      <ellipse cx="5.434" cy="5.434" rx="5.434" ry="5.434" stroke="none"/>
      <ellipse cx="5.434" cy="5.434" rx="4.934" ry="4.934" fill="none"/>
    </g>
    <g id="Ellipse_13" data-name="Ellipse 13" transform="translate(45.935 136.653)" fill="none" stroke="#707070" stroke-width="1">
      <ellipse cx="5.673" cy="5.673" rx="5.673" ry="5.673" stroke="none"/>
      <ellipse cx="5.673" cy="5.673" rx="5.173" ry="5.173" fill="none"/>
    </g>
    <g id="Ellipse_12" data-name="Ellipse 12" transform="translate(38.882 89.915)" fill="none" stroke="#707070" stroke-width="1">
      <ellipse cx="5.159" cy="5.159" rx="5.159" ry="5.159" stroke="none"/>
      <ellipse cx="5.159" cy="5.159" rx="4.659" ry="4.659" fill="none"/>
    </g>
    <g id="Ellipse_11" data-name="Ellipse 11" transform="translate(61.076 5.701)" fill="none" stroke="#707070" stroke-width="1">
      <ellipse cx="4.536" cy="4.536" rx="4.536" ry="4.536" stroke="none"/>
      <ellipse cx="4.536" cy="4.536" rx="4.036" ry="4.036" fill="none"/>
    </g>
    <g id="Ellipse_10" data-name="Ellipse 10" transform="translate(6.89 247.048)" fill="none" stroke="#707070" stroke-width="1">
      <ellipse cx="5.382" cy="5.382" rx="5.382" ry="5.382" stroke="none"/>
      <ellipse cx="5.382" cy="5.382" rx="4.882" ry="4.882" fill="none"/>
    </g>
    <g id="Ellipse_9" data-name="Ellipse 9" transform="translate(5.025 198.676)" fill="none" stroke="#707070" stroke-width="1">
      <ellipse cx="4.813" cy="4.813" rx="4.813" ry="4.813" stroke="none"/>
      <ellipse cx="4.813" cy="4.813" rx="4.313" ry="4.313" fill="none"/>
    </g>
    <g id="Ellipse_8" data-name="Ellipse 8" transform="translate(12.284 140.36)" fill="none" stroke="#707070" stroke-width="1">
      <ellipse cx="4.2" cy="4.2" rx="4.2" ry="4.2" stroke="none"/>
      <ellipse cx="4.2" cy="4.2" rx="3.7" ry="3.7" fill="none"/>
    </g>
    <g id="Ellipse_7" data-name="Ellipse 7" transform="translate(11.839 62.895)" fill="none" stroke="#707070" stroke-width="1">
      <ellipse cx="5.601" cy="5.601" rx="5.601" ry="5.601" stroke="none"/>
      <ellipse cx="5.601" cy="5.601" rx="5.101" ry="5.101" fill="none"/>
    </g>
    <g id="Ellipse_6" data-name="Ellipse 6" transform="translate(31.428 46.221)" fill="none" stroke="#707070" stroke-width="1">
      <ellipse cx="5.032" cy="5.032" rx="5.032" ry="5.032" stroke="none"/>
      <ellipse cx="5.032" cy="5.032" rx="4.532" ry="4.532" fill="none"/>
    </g>
  </g>
</svg>
